<?xml version="1.0" encoding="iso-8859-1"?>
<!-- Uploaded to: SVG Repo, www.svgrepo.com, Generator: SVG Repo Mixer Tools -->
<svg version="1.1" id="Layer_1" xmlns="http://www.w3.org/2000/svg" xmlns:xlink="http://www.w3.org/1999/xlink" 
	 viewBox="0 0 512 512" xml:space="preserve">
<path style="fill:#00ABD5;" d="M255.999,12.148c0,0,458.428,491.567,0,491.567S255.999,12.148,255.999,12.148z"/>
<path style="fill:#009FD3;" d="M319.21,87.352C283.99,42.175,256,12.148,256,12.148s-458.428,491.567,0,491.567
	c23.448,0,44.376-1.35,63.21-3.79C60.781,466.438,219.153,215.694,319.21,87.352z"/>
<path d="M256,512c-109.8,0-177.787-28.322-202.073-84.177c-14.637-33.662-13.073-77.083,4.643-129.059
	c13.848-40.628,37.6-86.757,70.597-137.104C185.08,76.339,249.298,7.186,249.941,6.498L256,0l6.059,6.498
	c0.643,0.688,64.859,69.842,120.775,155.162c32.997,50.348,56.749,96.476,70.597,137.104c17.716,51.976,19.278,95.397,4.643,129.059
	C433.787,483.678,365.799,512,256,512z M256,24.469C238.81,43.643,188.09,101.942,142.907,170.92
	C92.834,247.361,39.387,352.837,69.125,421.22c21.414,49.242,84.288,74.21,186.875,74.21s165.462-24.968,186.875-74.21
	c29.738-68.383-23.709-173.859-73.781-250.301C323.908,101.942,273.189,43.645,256,24.469z"/>
<g>
	<path style="fill:#FFFFFF;" d="M150.603,461.668c-41.521-17.097-65.015-50.362-67.94-96.196
		c-2.153-33.738,7.625-62.137,8.043-63.329l15.64,5.473l-7.82-2.737l7.822,2.728c-0.092,0.264-9.174,26.823-7.117,57.284
		c2.658,39.383,22.065,66.788,57.681,81.453L150.603,461.668z"/>
	<rect x="247.65" y="152.993" style="fill:#FFFFFF;" width="22.093" height="16.57"/>
	<rect x="275.266" y="186.133" style="fill:#FFFFFF;" width="22.093" height="16.57"/>
	<rect x="286.312" y="152.993" style="fill:#FFFFFF;" width="22.093" height="16.57"/>
</g>
</svg>